<mxfile host="app.diagrams.net" agent="Mozilla/5.0 (Windows NT 10.0; Win64; x64) AppleWebKit/537.36 (KHTML, like Gecko) Chrome/131.0.0.0 Safari/537.36" version="24.8.6">
  <diagram name="Page-1" id="6JxgSXakqPFhM3rZodq0">
    <mxGraphModel dx="800" dy="418" grid="1" gridSize="10" guides="1" tooltips="1" connect="1" arrows="1" fold="1" page="1" pageScale="1" pageWidth="850" pageHeight="1100" math="0" shadow="0">
      <root>
        <mxCell id="0" />
        <mxCell id="1" parent="0" />
        <mxCell id="BAe1L9jmREboliodap0u-1" value="lamp doesn&#39;t work&amp;nbsp;&amp;nbsp;" style="rounded=0;whiteSpace=wrap;html=1;" parent="1" vertex="1">
          <mxGeometry x="200" y="50" width="150" height="70" as="geometry" />
        </mxCell>
        <mxCell id="BAe1L9jmREboliodap0u-3" value="" style="shape=flexArrow;endArrow=classic;html=1;rounded=0;exitX=0.5;exitY=1;exitDx=0;exitDy=0;" parent="1" source="BAe1L9jmREboliodap0u-1" edge="1">
          <mxGeometry width="50" height="50" relative="1" as="geometry">
            <mxPoint x="240" y="240" as="sourcePoint" />
            <mxPoint x="280" y="290" as="targetPoint" />
          </mxGeometry>
        </mxCell>
        <mxCell id="BAe1L9jmREboliodap0u-5" value="" style="shape=flexArrow;endArrow=classic;html=1;rounded=0;exitX=1;exitY=0.5;exitDx=0;exitDy=0;" parent="1" edge="1">
          <mxGeometry width="50" height="50" relative="1" as="geometry">
            <mxPoint x="344" y="357" as="sourcePoint" />
            <mxPoint x="520" y="357" as="targetPoint" />
          </mxGeometry>
        </mxCell>
        <mxCell id="BAe1L9jmREboliodap0u-7" value="plug in lamp" style="rounded=0;whiteSpace=wrap;html=1;" parent="1" vertex="1">
          <mxGeometry x="520" y="320" width="120" height="60" as="geometry" />
        </mxCell>
        <mxCell id="6Of3CAp-Kd6w88anDGSZ-1" value="Lamp plugged in" style="rhombus;whiteSpace=wrap;html=1;" vertex="1" parent="1">
          <mxGeometry x="204" y="290" width="150" height="130" as="geometry" />
        </mxCell>
        <mxCell id="6Of3CAp-Kd6w88anDGSZ-2" value="NO" style="text;html=1;align=center;verticalAlign=middle;whiteSpace=wrap;rounded=0;" vertex="1" parent="1">
          <mxGeometry x="390" y="290" width="60" height="30" as="geometry" />
        </mxCell>
        <mxCell id="6Of3CAp-Kd6w88anDGSZ-3" value="" style="shape=flexArrow;endArrow=classic;html=1;rounded=0;exitX=0.507;exitY=0.959;exitDx=0;exitDy=0;exitPerimeter=0;entryX=0.439;entryY=-0.027;entryDx=0;entryDy=0;entryPerimeter=0;" edge="1" parent="1" source="6Of3CAp-Kd6w88anDGSZ-1">
          <mxGeometry width="50" height="50" relative="1" as="geometry">
            <mxPoint x="268.9999999999999" y="414" as="sourcePoint" />
            <mxPoint x="282.68000000000006" y="548.3800000000001" as="targetPoint" />
          </mxGeometry>
        </mxCell>
        <mxCell id="6Of3CAp-Kd6w88anDGSZ-7" value="bulb burned out" style="rhombus;whiteSpace=wrap;html=1;" vertex="1" parent="1">
          <mxGeometry x="192" y="550" width="181" height="170" as="geometry" />
        </mxCell>
        <mxCell id="6Of3CAp-Kd6w88anDGSZ-8" value="" style="shape=flexArrow;endArrow=classic;html=1;rounded=0;" edge="1" parent="1">
          <mxGeometry width="50" height="50" relative="1" as="geometry">
            <mxPoint x="373" y="634.55" as="sourcePoint" />
            <mxPoint x="500" y="635" as="targetPoint" />
          </mxGeometry>
        </mxCell>
        <mxCell id="6Of3CAp-Kd6w88anDGSZ-9" value="replace bulb" style="rounded=0;whiteSpace=wrap;html=1;" vertex="1" parent="1">
          <mxGeometry x="500" y="605" width="120" height="60" as="geometry" />
        </mxCell>
        <mxCell id="6Of3CAp-Kd6w88anDGSZ-10" value="YES" style="text;html=1;align=center;verticalAlign=middle;whiteSpace=wrap;rounded=0;" vertex="1" parent="1">
          <mxGeometry x="180" y="460" width="60" height="30" as="geometry" />
        </mxCell>
        <mxCell id="6Of3CAp-Kd6w88anDGSZ-12" value="YES" style="text;html=1;align=center;verticalAlign=middle;whiteSpace=wrap;rounded=0;" vertex="1" parent="1">
          <mxGeometry x="410" y="590" width="60" height="30" as="geometry" />
        </mxCell>
        <mxCell id="6Of3CAp-Kd6w88anDGSZ-13" value="" style="shape=flexArrow;endArrow=classic;html=1;rounded=0;" edge="1" parent="1">
          <mxGeometry width="50" height="50" relative="1" as="geometry">
            <mxPoint x="282.05" y="710" as="sourcePoint" />
            <mxPoint x="282.55" y="850" as="targetPoint" />
          </mxGeometry>
        </mxCell>
        <mxCell id="6Of3CAp-Kd6w88anDGSZ-14" value="Repair bulb" style="rounded=0;whiteSpace=wrap;html=1;" vertex="1" parent="1">
          <mxGeometry x="230" y="850" width="120" height="60" as="geometry" />
        </mxCell>
        <mxCell id="6Of3CAp-Kd6w88anDGSZ-15" value="NO" style="text;html=1;align=center;verticalAlign=middle;whiteSpace=wrap;rounded=0;" vertex="1" parent="1">
          <mxGeometry x="204" y="760" width="60" height="30" as="geometry" />
        </mxCell>
      </root>
    </mxGraphModel>
  </diagram>
</mxfile>
